<?xml version="1.0" standalone="no"?>
<!DOCTYPE svg PUBLIC "-//W3C//DTD SVG 20010904//EN"
 "http://www.w3.org/TR/2001/REC-SVG-20010904/DTD/svg10.dtd">
<svg version="1.0" xmlns="http://www.w3.org/2000/svg"
 width="400.000000pt" height="400.000000pt" viewBox="0 0 400.000000 400.000000"
 preserveAspectRatio="xMidYMid meet">

<g transform="translate(0.000000,400.000000) scale(0.100000,-0.100000)"
fill="#000000" stroke="none">
<path d="M2846 3326 c-32 -29 -36 -39 -36 -82 0 -29 11 -74 25 -109 14 -33 25
-61 25 -62 0 -1 -13 -9 -30 -18 -33 -17 -60 -61 -60 -98 0 -14 -7 -30 -15 -37
-26 -22 -19 -90 16 -146 55 -87 97 -132 130 -139 l31 -7 -4 -107 c-3 -85 -8
-114 -26 -148 -20 -39 -42 -57 -42 -34 0 4 -18 28 -39 53 -37 42 -40 49 -46
129 -15 195 -127 309 -318 323 -44 4 -61 9 -59 18 2 7 6 57 9 110 9 152 -28
262 -99 299 -71 36 -133 16 -225 -73 l-51 -51 -25 41 c-41 63 -71 82 -135 82
-56 0 -57 -1 -117 -62 -63 -66 -136 -194 -190 -335 -17 -45 -34 -73 -43 -73
-20 0 -179 157 -207 205 -13 22 -27 57 -30 78 -12 64 -72 88 -112 45 -48 -53
-56 -85 -49 -195 9 -141 23 -207 57 -275 l29 -58 -37 -33 c-80 -68 -173 -161
-199 -198 l-27 -40 -30 28 c-50 47 -87 104 -87 135 0 23 19 47 101 127 l101
98 -5 44 c-20 149 -23 162 -51 184 l-29 23 32 46 c35 51 61 116 61 153 0 14
-13 37 -29 54 -26 26 -33 28 -58 18 -45 -17 -69 -46 -104 -125 -32 -73 -33
-74 -69 -74 -54 0 -121 -39 -147 -86 -13 -21 -32 -69 -44 -106 -21 -65 -21
-69 -4 -110 9 -24 30 -63 46 -87 36 -55 47 -97 48 -185 2 -112 49 -198 143
-256 29 -19 55 -35 56 -36 2 -2 -7 -31 -21 -66 -29 -71 -47 -193 -47 -314 0
-155 72 -367 129 -381 14 -3 58 -16 96 -29 106 -35 350 -84 417 -84 32 0 58
-1 58 -3 0 -1 -11 -33 -25 -71 -42 -116 -26 -222 40 -274 34 -27 45 -27 87 -3
40 24 128 39 128 22 0 -6 -12 -11 -27 -11 -58 0 -108 -22 -149 -65 -73 -75
-82 -155 -24 -210 35 -34 69 -36 145 -10 76 26 204 112 211 142 9 33 -3 138
-17 166 -15 27 -50 56 -67 57 -27 0 -71 34 -83 63 -14 34 -6 43 56 53 22 3 79
24 128 47 48 22 89 38 92 35 3 -3 41 -94 86 -204 45 -109 92 -223 105 -252 13
-29 24 -54 24 -57 0 -2 23 -52 51 -112 28 -59 53 -122 56 -139 10 -60 65 -145
111 -170 55 -31 75 -30 141 3 65 34 155 137 201 232 34 68 72 199 72 244 -1
15 4 27 9 27 5 0 9 9 9 20 0 11 -4 20 -10 20 -5 0 -10 10 -10 23 0 43 -30 126
-57 158 -51 60 -136 76 -208 38 -56 -30 -122 -95 -157 -157 l-31 -53 -62 153
c-34 84 -72 175 -84 201 -11 27 -21 49 -21 50 0 1 73 2 163 3 175 1 252 10
420 50 124 30 156 51 201 133 68 125 49 409 -44 653 l-20 53 31 40 c16 22 42
65 57 95 25 50 27 65 27 170 0 63 -3 134 -7 156 -8 40 -6 44 47 103 63 71 79
117 73 211 -8 104 -56 172 -132 187 l-39 8 -24 89 c-26 97 -33 110 -74 132
-26 13 -30 12 -63 -20z m90 -104 c52 -187 77 -242 110 -242 17 0 17 -1 -2 45
-18 44 -13 52 20 37 34 -15 54 -49 67 -114 9 -46 8 -65 -5 -112 -9 -31 -21
-56 -26 -56 -5 0 -5 13 1 32 5 20 5 36 -1 42 -15 15 -19 4 -21 -53 -2 -50 -4
-53 -43 -73 -24 -12 -62 -21 -94 -22 -53 -1 -55 0 -103 52 -49 53 -61 76 -35
66 9 -4 19 9 29 40 15 44 15 46 -4 46 -29 0 -26 54 6 86 35 35 47 28 123 -76
2 -2 7 2 11 9 12 19 -3 67 -33 106 -29 38 -76 169 -76 212 0 16 5 34 12 41 21
21 47 -6 64 -66z m-1948 -56 c6 -28 -66 -165 -113 -216 -83 -89 -95 -164 -13
-81 59 59 108 53 108 -14 0 -38 -14 -60 -30 -50 -10 6 -12 -3 -6 -40 3 -27 11
-52 17 -55 17 -11 -79 -89 -118 -96 -64 -12 -157 37 -187 100 -46 97 25 276
110 276 30 0 30 -4 -2 -45 -17 -23 -21 -35 -14 -40 24 -15 66 34 120 136 82
155 79 151 103 147 12 -2 23 -11 25 -22z m1799 -318 c-3 -7 -5 -2 -5 12 0 14
2 19 5 13 2 -7 2 -19 0 -25z m-1805 -110 c-7 -7 -12 -8 -12 -2 0 14 12 26 19
19 2 -3 -1 -11 -7 -17z m370 -267 c86 -50 154 -63 338 -65 173 -1 176 -1 290
34 105 32 126 35 235 35 151 -1 215 -19 271 -76 29 -30 44 -39 61 -34 23 5 35
-7 40 -40 2 -11 39 -96 83 -190 63 -136 87 -201 119 -325 72 -279 75 -381 16
-428 -42 -33 -444 -82 -558 -68 l-57 7 80 76 c80 75 180 197 180 221 0 16 0
16 51 -8 57 -25 151 -27 198 -2 50 25 39 38 -29 34 -36 -3 -77 2 -107 12 -58
19 -129 84 -138 126 -5 23 -12 30 -30 30 -12 0 -25 -6 -28 -14 -6 -16 2 -56
15 -73 11 -14 9 -16 -93 -53 -266 -99 -715 -98 -911 1 -31 16 -59 33 -63 39
-3 6 3 24 15 40 44 61 -8 69 -65 9 -22 -22 -66 -54 -98 -70 -50 -26 -57 -32
-46 -45 10 -12 24 -14 55 -9 53 8 64 -7 28 -40 -15 -14 -24 -29 -20 -33 4 -4
16 3 25 14 24 30 40 18 87 -61 40 -70 125 -157 132 -137 4 13 22 7 22 -7 0
-12 -29 -10 -90 4 -30 7 -77 16 -105 20 -77 9 -215 45 -262 67 -39 18 -44 25
-67 96 -29 86 -34 191 -16 329 18 134 133 345 271 497 56 61 111 106 131 106
4 0 22 -9 40 -19z m1228 -1508 c-109 -116 -156 -255 -147 -437 3 -74 1 -94 -7
-80 -6 11 -11 67 -10 129 0 119 15 189 61 279 25 50 137 176 156 176 5 0 -19
-30 -53 -67z m-985 -155 c-7 -19 -32 -31 -46 -22 -15 9 -10 42 9 53 21 12 46
-8 37 -31z"/>
<path d="M3020 2859 c0 -36 22 -109 31 -103 5 3 9 32 9 65 0 52 -2 59 -20 59
-14 0 -20 -7 -20 -21z"/>
<path d="M2983 2843 c-17 -6 -16 -28 2 -63 23 -45 38 -38 30 13 -8 47 -14 57
-32 50z"/>
<path d="M661 2786 c-15 -18 -10 -78 7 -84 8 -2 12 11 12 47 0 55 -2 58 -19
37z"/>
<path d="M705 2763 c-3 -21 -9 -48 -12 -60 -3 -16 -1 -23 9 -23 9 0 22 21 31
51 21 65 21 69 -2 69 -14 0 -21 -10 -26 -37z"/>
<path d="M750 2728 c-21 -35 -26 -58 -11 -58 12 0 28 21 40 52 15 41 -5 45
-29 6z"/>
<path d="M1350 2443 c1 -18 19 -35 29 -28 9 5 9 10 0 21 -12 15 -29 19 -29 7z"/>
<path d="M2099 2420 c-118 -30 -196 -77 -171 -102 12 -12 19 -11 83 16 14 6
13 -5 -8 -76 -28 -94 -33 -208 -13 -304 22 -108 38 -117 155 -89 33 9 112 18
175 22 63 3 118 11 122 17 11 17 -10 34 -50 41 l-37 6 4 90 c4 103 -12 205
-40 263 -10 22 -19 42 -19 45 0 15 56 -52 76 -92 22 -43 27 -46 45 -36 26 13
20 44 -19 108 -37 61 -94 90 -192 96 -41 2 -91 0 -111 -5z m124 -87 c33 -35
67 -105 67 -139 0 -11 -6 -11 -27 -3 -66 25 -163 -21 -150 -72 4 -15 0 -23
-14 -26 -10 -3 -19 -14 -19 -24 0 -34 29 -93 57 -116 l26 -21 -49 -14 c-27 -8
-51 -13 -53 -12 -9 7 -31 123 -31 165 0 63 28 195 51 241 36 70 86 77 142 21z"/>
<path d="M1397 2399 c-48 -11 -103 -40 -147 -77 -30 -26 -33 -32 -21 -46 18
-22 24 -21 73 13 24 16 53 32 66 36 l23 7 -26 -52 c-35 -69 -65 -190 -65 -262
0 -47 -3 -60 -17 -64 -52 -17 -93 -39 -93 -50 0 -24 49 -27 113 -9 41 12 103
19 186 21 129 2 154 10 135 42 -6 10 -8 26 -3 37 13 34 9 227 -5 268 -16 44
-11 46 25 11 31 -29 59 -27 59 5 0 23 -62 74 -122 100 -53 23 -130 31 -181 20z
m120 -91 c19 -21 53 -80 53 -93 0 -3 -13 -5 -29 -5 -56 0 -80 -16 -87 -58 -4
-26 -13 -41 -27 -48 -30 -12 -33 -48 -8 -88 l21 -33 -31 -7 c-55 -11 -59 -9
-59 33 0 99 46 239 96 289 38 38 44 39 71 10z"/>
<path d="M1772 1895 c-48 -21 -40 -49 13 -52 22 -1 52 -4 67 -8 36 -9 49 18
22 45 -27 27 -64 32 -102 15z"/>
<path d="M1650 1777 c0 -59 58 -97 147 -97 48 0 68 5 105 29 60 38 83 70 64
89 -12 13 -20 10 -58 -17 -74 -53 -156 -51 -208 4 -33 35 -50 32 -50 -8z"/>
<path d="M920 1630 c0 -14 39 -32 52 -24 7 4 2 12 -13 20 -29 16 -39 17 -39 4z"/>
</g>
</svg>
